<?xml version="1.0" ?>
<svg xmlns="http://www.w3.org/2000/svg" width="2000" height="2000">
  <rect stroke="none" stroke-width="0" x="0" y="0" width="2000" height="2000" fill="white"/>
  <circle stroke="none" stroke-width="0" cx="1000" cy="1000" r="980" fill="black"/>
  <circle stroke="#9B59D0" stroke-width="140" cx="1000" cy="1000" r="750" fill="none"/>
  <circle stroke="#FFF8E7" stroke-width="140" cx="1000" cy="1000" r="600" fill="none"/>
  <circle stroke="#FFF433" stroke-width="140" cx="1000" cy="1000" r="450" fill="none"/>
  <circle stroke="#DDDDDD" stroke-width="140" cx="1000" cy="1000" r="300" fill="#DDDDDD"/>
  <path stroke="#2D2D2D" stroke-width="140" id="arc2000" d="M 1900.0 1000.0 A 900 900 0 0 1 1873.8 1215.4" fill="none"/>
  <text dominant-baseline="middle" text-anchor="middle" font-family="sans-serif" font-size="40" fill="#FFF8E7">
    <textPath startOffset="50%" href="#arc2000">2000</textPath>
  </text>
  <path stroke="#2D2D2D" stroke-width="140" id="arc2001" d="M 1873.8 1215.4 A 900 900 0 0 1 1796.9 1418.3" fill="none"/>
  <text dominant-baseline="middle" text-anchor="middle" font-family="sans-serif" font-size="40" fill="#FFF8E7">
    <textPath startOffset="50%" href="#arc2001">2001</textPath>
  </text>
  <path stroke="#2D2D2D" stroke-width="140" id="arc2002" d="M 1796.9 1418.3 A 900 900 0 0 1 1673.7 1596.8" fill="none"/>
  <text dominant-baseline="middle" text-anchor="middle" font-family="sans-serif" font-size="40" fill="#FFF8E7">
    <textPath startOffset="50%" href="#arc2002">2002</textPath>
  </text>
  <path stroke="#2D2D2D" stroke-width="140" id="arc2003" d="M 1673.7 1596.8 A 900 900 0 0 1 1511.3 1740.7" fill="none"/>
  <text dominant-baseline="middle" text-anchor="middle" font-family="sans-serif" font-size="40" fill="#FFF8E7">
    <textPath startOffset="50%" href="#arc2003">2003</textPath>
  </text>
  <path stroke="#2D2D2D" stroke-width="140" id="arc2004" d="M 1511.3 1740.7 A 900 900 0 0 1 1319.1 1841.5" fill="none"/>
  <text dominant-baseline="middle" text-anchor="middle" font-family="sans-serif" font-size="40" fill="#FFF8E7">
    <textPath startOffset="50%" href="#arc2004">2004</textPath>
  </text>
  <path stroke="#2D2D2D" stroke-width="140" id="arc2005" d="M 1319.1 1841.5 A 900 900 0 0 1 1108.5 1893.4" fill="none"/>
  <text dominant-baseline="middle" text-anchor="middle" font-family="sans-serif" font-size="40" fill="#FFF8E7">
    <textPath startOffset="50%" href="#arc2005">2005</textPath>
  </text>
  <path stroke="#2D2D2D" stroke-width="140" id="arc2006" d="M 1108.5 1893.4 A 900 900 0 0 1 891.5 1893.4" fill="none"/>
  <text dominant-baseline="middle" text-anchor="middle" font-family="sans-serif" font-size="40" fill="#FFF8E7">
    <textPath startOffset="50%" href="#arc2006">2006</textPath>
  </text>
  <path stroke="#2D2D2D" stroke-width="140" id="arc2007" d="M 891.5 1893.4 A 900 900 0 0 1 680.9 1841.5" fill="none"/>
  <text dominant-baseline="middle" text-anchor="middle" font-family="sans-serif" font-size="40" fill="#FFF8E7">
    <textPath startOffset="50%" href="#arc2007">2007</textPath>
  </text>
  <path stroke="#2D2D2D" stroke-width="140" id="arc2008" d="M 680.9 1841.5 A 900 900 0 0 1 488.7 1740.7" fill="none"/>
  <text dominant-baseline="middle" text-anchor="middle" font-family="sans-serif" font-size="40" fill="#FFF8E7">
    <textPath startOffset="50%" href="#arc2008">2008</textPath>
  </text>
  <path stroke="#2D2D2D" stroke-width="140" id="arc2009" d="M 488.7 1740.7 A 900 900 0 0 1 326.3 1596.8" fill="none"/>
  <text dominant-baseline="middle" text-anchor="middle" font-family="sans-serif" font-size="40" fill="#FFF8E7">
    <textPath startOffset="50%" href="#arc2009">2009</textPath>
  </text>
  <path stroke="#2D2D2D" stroke-width="140" id="arc2010" d="M 326.3 1596.8 A 900 900 0 0 1 203.1 1418.3" fill="none"/>
  <text dominant-baseline="middle" text-anchor="middle" font-family="sans-serif" font-size="40" fill="#FFF8E7">
    <textPath startOffset="50%" href="#arc2010">2010</textPath>
  </text>
  <path stroke="#2D2D2D" stroke-width="140" id="arc2011" d="M 203.1 1418.3 A 900 900 0 0 1 126.2 1215.4" fill="none"/>
  <text dominant-baseline="middle" text-anchor="middle" font-family="sans-serif" font-size="40" fill="#FFF8E7">
    <textPath startOffset="50%" href="#arc2011">2011</textPath>
  </text>
  <path stroke="#2D2D2D" stroke-width="140" id="arc2012" d="M 126.2 1215.4 A 900 900 0 0 1 100.0 1000.0" fill="none"/>
  <text dominant-baseline="middle" text-anchor="middle" font-family="sans-serif" font-size="40" fill="#FFF8E7">
    <textPath startOffset="50%" href="#arc2012">2012</textPath>
  </text>
  <path stroke="#2D2D2D" stroke-width="140" id="arc2013" d="M 100.0 1000.0 A 900 900 0 0 1 126.2 784.6" fill="none"/>
  <text dominant-baseline="middle" text-anchor="middle" font-family="sans-serif" font-size="40" fill="#FFF8E7">
    <textPath startOffset="50%" href="#arc2013">2013</textPath>
  </text>
  <path stroke="#2D2D2D" stroke-width="140" id="arc2014" d="M 126.2 784.6 A 900 900 0 0 1 203.1 581.7" fill="none"/>
  <text dominant-baseline="middle" text-anchor="middle" font-family="sans-serif" font-size="40" fill="#FFF8E7">
    <textPath startOffset="50%" href="#arc2014">2014</textPath>
  </text>
  <path stroke="#2D2D2D" stroke-width="140" id="arc2015" d="M 203.1 581.7 A 900 900 0 0 1 326.3 403.2" fill="none"/>
  <text dominant-baseline="middle" text-anchor="middle" font-family="sans-serif" font-size="40" fill="#FFF8E7">
    <textPath startOffset="50%" href="#arc2015">2015</textPath>
  </text>
  <path stroke="#2D2D2D" stroke-width="140" id="arc2016" d="M 326.3 403.2 A 900 900 0 0 1 488.7 259.3" fill="none"/>
  <text dominant-baseline="middle" text-anchor="middle" font-family="sans-serif" font-size="40" fill="#FFF8E7">
    <textPath startOffset="50%" href="#arc2016">2016</textPath>
  </text>
  <path stroke="#2D2D2D" stroke-width="140" id="arc2017" d="M 488.7 259.3 A 900 900 0 0 1 680.9 158.5" fill="none"/>
  <text dominant-baseline="middle" text-anchor="middle" font-family="sans-serif" font-size="40" fill="#FFF8E7">
    <textPath startOffset="50%" href="#arc2017">2017</textPath>
  </text>
  <path stroke="#2D2D2D" stroke-width="140" id="arc2018" d="M 680.9 158.5 A 900 900 0 0 1 891.5 106.6" fill="none"/>
  <text dominant-baseline="middle" text-anchor="middle" font-family="sans-serif" font-size="40" fill="#FFF8E7">
    <textPath startOffset="50%" href="#arc2018">2018</textPath>
  </text>
  <path stroke="#2D2D2D" stroke-width="140" id="arc2019" d="M 891.5 106.6 A 900 900 0 0 1 1108.5 106.6" fill="none"/>
  <text dominant-baseline="middle" text-anchor="middle" font-family="sans-serif" font-size="40" fill="#FFF8E7">
    <textPath startOffset="50%" href="#arc2019">2019</textPath>
  </text>
  <path stroke="#2D2D2D" stroke-width="140" id="arc2020" d="M 1108.5 106.6 A 900 900 0 0 1 1319.1 158.5" fill="none"/>
  <text dominant-baseline="middle" text-anchor="middle" font-family="sans-serif" font-size="40" fill="#FFF8E7">
    <textPath startOffset="50%" href="#arc2020">2020</textPath>
  </text>
  <path stroke="#2D2D2D" stroke-width="140" id="arc2021" d="M 1319.1 158.5 A 900 900 0 0 1 1511.3 259.3" fill="none"/>
  <text dominant-baseline="middle" text-anchor="middle" font-family="sans-serif" font-size="40" fill="#FFF8E7">
    <textPath startOffset="50%" href="#arc2021">2021</textPath>
  </text>
  <path stroke="#2D2D2D" stroke-width="140" id="arc2022" d="M 1511.3 259.3 A 900 900 0 0 1 1673.7 403.2" fill="none"/>
  <text dominant-baseline="middle" text-anchor="middle" font-family="sans-serif" font-size="40" fill="#FFF8E7">
    <textPath startOffset="50%" href="#arc2022">2022</textPath>
  </text>
  <path stroke="#2D2D2D" stroke-width="140" id="arc2023" d="M 1673.7 403.2 A 900 900 0 0 1 1796.9 581.7" fill="none"/>
  <text dominant-baseline="middle" text-anchor="middle" font-family="sans-serif" font-size="40" fill="#FFF8E7">
    <textPath startOffset="50%" href="#arc2023">2023</textPath>
  </text>
  <path stroke="#2D2D2D" stroke-width="140" id="arc2024" d="M 1796.9 581.7 A 900 900 0 0 1 1873.8 784.6" fill="none"/>
  <text dominant-baseline="middle" text-anchor="middle" font-family="sans-serif" font-size="40" fill="#FFF8E7">
    <textPath startOffset="50%" href="#arc2024">2024</textPath>
  </text>
  <path stroke="#2D2D2D" stroke-width="140" id="arc2025" d="M 1873.8 784.6 A 900 900 0 0 1 1900.0 1000.0" fill="none"/>
  <text dominant-baseline="middle" text-anchor="middle" font-family="sans-serif" font-size="40" fill="#FFF8E7">
    <textPath startOffset="50%" href="#arc2025">2025</textPath>
  </text>
</svg>
